<svg width="24" height="24" viewBox="0 0 24 24" fill="none" xmlns="http://www.w3.org/2000/svg">
<path d="M9 21H15" stroke="#95FFCA" stroke-width="2" stroke-linecap="round"/>
<path d="M12 21L12 18" stroke="#95FFCA" stroke-width="2"/>
<path d="M6.28613 9H17.7139C17.8541 9 17.9313 8.99978 17.9873 9.00195C17.9907 9.00208 17.9942 9.00182 17.9971 9.00195C17.9972 9.00509 17.9979 9.00894 17.998 9.0127C18.0002 9.06871 18 9.14594 18 9.28613V10C18 10.7205 17.9992 11.1164 17.9814 11.3994L17.957 11.6523C17.6709 13.8259 16.0051 15.5506 13.8613 15.9248L13.6523 15.957C13.3439 15.9976 12.9604 16 12 16C11.2795 16 10.8836 15.9992 10.6006 15.9814L10.3477 15.957C8.17406 15.6709 6.44938 14.0051 6.0752 11.8613L6.04297 11.6523C6.00238 11.3439 6 10.9604 6 10V9.28613C6 9.14594 5.99978 9.06871 6.00195 9.0127C6.0021 9.00896 6.0018 9.00507 6.00195 9.00195C6.00507 9.0018 6.00896 9.0021 6.0127 9.00195C6.06871 8.99978 6.14594 9 6.28613 9Z" fill="#95FFCA" stroke="#95FFCA" stroke-width="2" stroke-linecap="round"/>
<path d="M11.0385 11.7253C10.8868 12.2563 11.1942 12.8098 11.7253 12.9615C12.2563 13.1132 12.8098 12.8058 12.9615 12.2747L11.0385 11.7253ZM13.7305 5.9432L14.692 6.21792L14.692 6.21792L13.7305 5.9432ZM14.9108 4.63569L14.5394 3.70721L14.5394 3.70721L14.9108 4.63569ZM14.0845 5.07626L14.8268 5.74632L14.8268 5.74632L14.0845 5.07626ZM12 12L12.9615 12.2747L14.692 6.21792L13.7305 5.9432L12.769 5.66848L11.0385 11.7253L12 12ZM14.9108 4.63569L15.2822 5.56416L19.3714 3.92848L19 3L18.6286 2.07152L14.5394 3.70721L14.9108 4.63569ZM13.7305 5.9432L14.692 6.21792C14.7629 5.97002 14.7995 5.84514 14.8328 5.75786C14.8593 5.68854 14.8599 5.70964 14.8268 5.74632L14.0845 5.07626L13.3422 4.40619C12.9947 4.79109 12.8743 5.29982 12.769 5.66848L13.7305 5.9432ZM14.9108 4.63569L14.5394 3.70721C14.1834 3.8496 13.6896 4.0213 13.3422 4.40619L14.0845 5.07626L14.8268 5.74632C14.7937 5.783 14.7726 5.78461 14.8389 5.75117C14.9223 5.70905 15.0428 5.65992 15.2822 5.56416L14.9108 4.63569Z" fill="#95FFCA"/>
</svg>
